<?xml version="1.0" encoding="UTF-8"?><svg id="Layer_2" xmlns="http://www.w3.org/2000/svg" xmlns:xlink="http://www.w3.org/1999/xlink" viewBox="0 0 115 115"><defs><style>.cls-1{fill:url(#linear-gradient);}.cls-2{fill:#15151c;}.cls-3{fill:url(#linear-gradient-8);}.cls-4{fill:url(#linear-gradient-9);}.cls-5{fill:url(#linear-gradient-3);}.cls-6{fill:url(#linear-gradient-4);}.cls-7{fill:url(#linear-gradient-2);}.cls-8{fill:url(#linear-gradient-6);}.cls-9{fill:url(#linear-gradient-7);}.cls-10{fill:url(#linear-gradient-5);}.cls-11{fill:#fff;stroke:#000;stroke-linejoin:round;stroke-width:2px;}.cls-12{fill:url(#linear-gradient-14);}.cls-13{fill:url(#linear-gradient-15);}.cls-14{fill:url(#linear-gradient-16);}.cls-15{fill:url(#linear-gradient-17);}.cls-16{fill:url(#linear-gradient-13);}.cls-17{fill:url(#linear-gradient-12);}.cls-18{fill:url(#linear-gradient-10);}.cls-19{fill:url(#linear-gradient-11);}</style><linearGradient id="linear-gradient" x1="24.21619" y1="53.88939" x2="75.58766" y2="53.88939" gradientUnits="userSpaceOnUse"><stop offset="0" stop-color="#bfefff"/><stop offset=".35619" stop-color="#bfe7ff"/><stop offset="1" stop-color="#bfdfff"/></linearGradient><linearGradient id="linear-gradient-2" x1="32.91028" y1="58.33099" x2="84.28175" y2="58.33099" gradientUnits="userSpaceOnUse"><stop offset="0" stop-color="#80dfff"/><stop offset=".60309" stop-color="#80c8ff"/><stop offset="1" stop-color="#80c0ff"/></linearGradient><linearGradient id="linear-gradient-3" x1="41.60438" y1="62.77259" x2="92.97585" y2="62.77259" gradientUnits="userSpaceOnUse"><stop offset="0" stop-color="#40cfff"/><stop offset=".23513" stop-color="#40c0ff"/><stop offset=".70731" stop-color="#40a8ff"/><stop offset="1" stop-color="#40a0ff"/></linearGradient><linearGradient id="linear-gradient-4" x1="50.29847" y1="67.21419" x2="101.66994" y2="67.21419" gradientUnits="userSpaceOnUse"><stop offset="0" stop-color="#00bfff"/><stop offset=".38197" stop-color="#00a0ff"/><stop offset=".76382" stop-color="#08f"/><stop offset="1" stop-color="#0080ff"/></linearGradient><linearGradient id="linear-gradient-5" x1="9.56898" y1="54.62785" x2="45.19791" y2="109.14728" gradientUnits="userSpaceOnUse"><stop offset=".07769" stop-color="#3b384d"/><stop offset=".59493" stop-color="#28273b"/><stop offset="1" stop-color="#202033"/></linearGradient><linearGradient id="linear-gradient-6" x1="9.56898" y1="54.62785" x2="45.19791" y2="109.14728" gradientUnits="userSpaceOnUse"><stop offset="0" stop-color="#595580"/><stop offset=".32919" stop-color="#3d3b59"/><stop offset="1" stop-color="#000"/></linearGradient><linearGradient id="linear-gradient-7" x1="49.3901" y1="68.14945" x2="105.82249" y2="98.03949" gradientUnits="userSpaceOnUse"><stop offset="0" stop-color="#4e4c66"/><stop offset=".10613" stop-color="#484660"/><stop offset=".65803" stop-color="#303048"/><stop offset="1" stop-color="#282840"/></linearGradient><linearGradient id="linear-gradient-8" x1="69.58773" y1="65.26968" x2="86.16131" y2="105.36824" gradientUnits="userSpaceOnUse"><stop offset="0" stop-color="#171621"/><stop offset="1" stop-color="#000"/></linearGradient><linearGradient id="linear-gradient-9" x1="9.03384" y1="18.57339" x2="58.01221" y2="81.67166" gradientUnits="userSpaceOnUse"><stop offset="0" stop-color="#595473"/><stop offset=".02553" stop-color="#565170"/><stop offset=".45049" stop-color="#353349"/><stop offset=".7901" stop-color="#212031"/><stop offset="1" stop-color="#1a1a29"/></linearGradient><linearGradient id="linear-gradient-10" x1="29.85186" y1="10.33671" x2="168.84454" y2="50.49015" gradientUnits="userSpaceOnUse"><stop offset="0" stop-color="#5e5b7a"/><stop offset=".05946" stop-color="#555370"/><stop offset=".32857" stop-color="#353449"/><stop offset=".54372" stop-color="#212131"/><stop offset=".67667" stop-color="#1a1a29"/></linearGradient><linearGradient id="linear-gradient-11" x1="62.51364" y1="19.77234" x2="139.87192" y2="42.12028" gradientUnits="userSpaceOnUse"><stop offset="0" stop-color="#565370"/><stop offset=".29341" stop-color="#353449"/><stop offset=".53027" stop-color="#212131"/><stop offset=".67667" stop-color="#1a1a29"/></linearGradient><linearGradient id="linear-gradient-12" x1="48.41654" y1="32.77985" x2="100.30565" y2="51.67035" gradientUnits="userSpaceOnUse"><stop offset=".09303" stop-color="#4e4c66"/><stop offset=".10099" stop-color="#4d4b65"/><stop offset=".65609" stop-color="#35354f"/><stop offset="1" stop-color="#2d2d47"/></linearGradient><linearGradient id="linear-gradient-13" x1="46.65499" y1="64.88245" x2="58.1902" y2="64.55287" gradientUnits="userSpaceOnUse"><stop offset="0" stop-color="#232233"/><stop offset="1" stop-color="#242436"/></linearGradient><linearGradient id="linear-gradient-14" x1="99.7991" y1="24.78479" x2="103.06128" y2="53.19733" gradientUnits="userSpaceOnUse"><stop offset="0" stop-color="#171621"/><stop offset="1" stop-color="#13131c"/></linearGradient><linearGradient id="linear-gradient-15" x1="70.68137" y1="66.09984" x2="86.62875" y2="75.83045" gradientUnits="userSpaceOnUse"><stop offset=".08911" stop-color="#444259"/><stop offset=".61048" stop-color="#303047"/><stop offset="1" stop-color="#282840"/></linearGradient><linearGradient id="linear-gradient-16" x1=".66684" y1="22.81844" x2="20.22492" y2="48.01488" gradientUnits="userSpaceOnUse"><stop offset=".01841" stop-color="#8a84b3"/><stop offset=".28457" stop-color="#69658c"/><stop offset=".59637" stop-color="#474665"/><stop offset=".84586" stop-color="#33334d"/><stop offset="1" stop-color="#2c2c45"/></linearGradient><linearGradient id="linear-gradient-17" x1="10.25452" y1="4.80027" x2="59.60517" y2="18.92338" gradientUnits="userSpaceOnUse"><stop offset="0" stop-color="#8a84b3"/><stop offset=".28979" stop-color="#76729f"/><stop offset=".72824" stop-color="#5e5d88"/><stop offset="1" stop-color="#565680"/></linearGradient></defs><polygon class="cls-2" points="67.82373 30.61843 7.25 47.19723 7.25 95.31267 67.82373 78.80029 67.82373 30.61843"/><polygon class="cls-2" points="107.05945 50.30576 67.82373 30.61843 67.82373 61.24485 107.05945 50.30576"/><polygon class="cls-11" points="66.89356 79.68566 66.89356 5.14975 15.52209 19.20993 15.52209 93.74583 66.89356 79.68566"/><polygon class="cls-1" points="24.21619 98.18743 75.58766 84.12726 75.58766 9.59135 24.21619 23.65153 24.21619 98.18743"/><polygon class="cls-7" points="32.91028 102.62903 84.28175 88.56885 84.28175 14.03295 32.91028 28.09313 32.91028 102.62903"/><polygon class="cls-5" points="41.60438 107.07063 92.97585 93.01045 92.97585 18.47455 41.60438 32.53473 41.60438 107.07063"/><polygon class="cls-6" points="101.66994 97.45205 101.66994 22.91615 50.29847 36.97632 50.29847 111.51223 101.66994 97.45205"/><polygon class="cls-10" points="46.48571 115 7.25 95.31267 7.25 47.19723 46.48571 66.88456 46.48571 115"/><polygon class="cls-8" points="46.48571 115 7.25 95.31267 7.25 47.19723 46.48571 66.88456 46.48571 68.10822 8.36306 48.98952 8.68114 94.4421 46.48571 113.64413 46.48571 115"/><polygon class="cls-9" points="57.81139 63.78477 46.48571 66.88456 46.48571 115 107.05945 98.4212 107.05945 50.30576 95.21392 53.54784 95.21392 80.50828 70.32998 87.4719 70.32998 97.3012 57.81141 100.5745 57.81141 73.57399 57.81139 63.78477"/><polygon class="cls-3" points="46.48571 113.64413 46.48571 115 107.05945 98.4212 107.05945 50.30576 106.12006 50.56757 106.19337 97.46174 46.48571 113.64413"/><polygon class="cls-4" points="46.48571 66.88456 7.25 47.19723 7.25 16.21294 46.48571 35.90027 46.48571 66.88456"/><polygon class="cls-18" points="107.05945 19.32147 66.28039 .10228 7.25 16.21294 46.48571 35.90027 107.05945 19.32147"/><polygon class="cls-19" points="107.05945 19.32147 66.28039 .10228 66.29211 .7177 104.76361 19.08642 46.4857 34.98017 46.48571 35.90027 107.05945 19.32147"/><polygon class="cls-17" points="95.21393 53.54783 107.05945 50.30576 107.05945 19.32147 46.48571 35.90027 46.48571 66.88456 57.81141 63.78476 57.81141 44.04117 76.51266 50.9791 95.21392 33.80425 95.21393 53.54783"/><polygon class="cls-16" points="46.48571 65.65575 46.48571 66.88456 57.81141 63.78476 57.81141 62.56642 46.48571 65.65575"/><polygon class="cls-12" points="95.21392 53.54784 107.05945 50.30576 107.05945 19.32147 106.03096 19.60296 106.10029 49.44779 95.21393 52.56166 95.21392 53.54784"/><polygon class="cls-13" points="85.01178 71.81799 68.53337 76.32807 68.53337 67.81503 85.01178 63.30495 85.01178 71.81799"/><polygon class="cls-14" points="8.35447 47.75142 7.25 47.19723 7.25 16.21294 8.28149 16.73051 8.35447 47.75142"/><polygon class="cls-15" points="9.14559 16.38652 66.29211 .7177 66.28039 .10228 7.25 16.21294 46.48571 35.90027 46.4857 34.98017 9.14559 16.38652"/></svg>